# Wavefront OBJ file
# Exported by Misfit Model 3D 1.2.4
# Thu Dec 17 21:03:00 2015

mtllib log_4.mtl

# 120 Vertices
v 1.9375 0.5 -0.25
v -1.8125 0.5 -0.25
v -1.8125 0.5 0.25
v 1.9375 0.5 0.25
v -1.8125 0.5 -0.0625
v -1.9375 0.5 -0.0625
v -1.9375 0.5 0.25
v -1.8125 0.5 0.25
v 1.9375 0.0625 -0.1875
v 1.875 0.0625 -0.1875
v 1.875 0.0625 0.1875
v 1.9375 0.0625 0.1875
v -1.875 0.0625 -0.1875
v -1.9375 0.0625 -0.1875
v -1.9375 0.0625 0.1875
v -1.875 0.0625 0.1875
v -1.8125 0.5 -0.25
v -1.875 0.5 -0.25
v -1.875 0.5 -0.0625
v -1.8125 0.5 -0.0625
v -1.875 0.5 -0.25
v -1.9375 0.5 -0.25
v -1.9375 0.5 -0.125
v -1.875 0.5 -0.125
v 1.9375 0.0 0.25
v -1.9375 0.0 0.25
v -1.9375 0.0 -0.25
v 1.9375 0.0 -0.25
v 1.9375 0.4375 0.1875
v 1.875 0.4375 0.1875
v 1.875 0.4375 -0.1875
v 1.9375 0.4375 -0.1875
v -1.875 0.4375 0.1875
v -1.9375 0.4375 0.1875
v -1.9375 0.4375 -0.0625
v -1.875 0.4375 -0.0625
v -1.875 0.4375 -0.125
v -1.9375 0.4375 -0.125
v -1.9375 0.4375 -0.1875
v -1.875 0.4375 -0.1875
v 1.875 0.4375 -0.1875
v 1.875 0.4375 0.1875
v 1.875 0.0625 0.1875
v 1.875 0.0625 -0.1875
v 1.9375 0.5 0.1875
v 1.9375 0.5 0.25
v 1.9375 0.0 0.25
v 1.9375 0.0 0.1875
v 1.9375 0.0625 -0.1875
v 1.9375 0.0625 0.1875
v 1.9375 0.0 0.1875
v 1.9375 0.0 -0.1875
v 1.9375 0.5 -0.1875
v 1.9375 0.5 0.1875
v 1.9375 0.4375 0.1875
v 1.9375 0.4375 -0.1875
v 1.9375 0.5 -0.25
v 1.9375 0.5 -0.1875
v 1.9375 0.0 -0.1875
v 1.9375 0.0 -0.25
v -1.875 0.0625 -0.1875
v -1.875 0.0625 0.1875
v -1.875 0.4375 0.1875
v -1.875 0.4375 -0.1875
v -1.9375 0.0 0.1875
v -1.9375 0.0 0.25
v -1.9375 0.5 0.25
v -1.9375 0.5 0.1875
v -1.9375 0.0 -0.1875
v -1.9375 0.0 0.1875
v -1.9375 0.0625 0.1875
v -1.9375 0.0625 -0.1875
v -1.9375 0.0 -0.25
v -1.9375 0.0 -0.1875
v -1.9375 0.4375 -0.1875
v -1.9375 0.4375 -0.25
v -1.9375 0.4375 -0.0625
v -1.9375 0.4375 0.1875
v -1.9375 0.5 0.1875
v -1.9375 0.5 -0.0625
v -1.9375 0.4375 -0.25
v -1.9375 0.4375 -0.125
v -1.9375 0.5 -0.125
v -1.9375 0.5 -0.25
v -1.875 0.4375 -0.125
v -1.875 0.4375 -0.0625
v -1.875 0.5 -0.0625
v -1.875 0.5 -0.125
v 1.9375 0.0 -0.25
v -1.9375 0.0 -0.25
v -1.9375 0.5 -0.25
v 1.9375 0.5 -0.25
v 1.9375 0.0625 0.1875
v 1.875 0.0625 0.1875
v 1.875 0.4375 0.1875
v 1.9375 0.4375 0.1875
v -1.875 0.0625 0.1875
v -1.9375 0.0625 0.1875
v -1.9375 0.4375 0.1875
v -1.875 0.4375 0.1875
v -1.875 0.4375 -0.0625
v -1.9375 0.4375 -0.0625
v -1.9375 0.5 -0.0625
v -1.875 0.5 -0.0625
v 1.9375 0.5 0.25
v -1.9375 0.5 0.25
v -1.9375 0.0 0.25
v 1.9375 0.0 0.25
v 1.9375 0.4375 -0.1875
v 1.875 0.4375 -0.1875
v 1.875 0.0625 -0.1875
v 1.9375 0.0625 -0.1875
v -1.875 0.4375 -0.1875
v -1.9375 0.4375 -0.1875
v -1.9375 0.0625 -0.1875
v -1.875 0.0625 -0.1875
v -1.875 0.5 -0.125
v -1.9375 0.5 -0.125
v -1.9375 0.4375 -0.125
v -1.875 0.4375 -0.125

# 180 Texture Coordinates
vt 0.015625 0.484375
vt 0.953125 0.484375
vt 0.953125 0.609375
vt 0.015625 0.484375
vt 0.953125 0.609375
vt 0.015625 0.609375
vt 0.78125 0.640625
vt 0.8125 0.640625
vt 0.8125 0.71875
vt 0.78125 0.640625
vt 0.8125 0.71875
vt 0.78125 0.71875
vt 0.5 0.640625
vt 0.515625 0.640625
vt 0.515625 0.734375
vt 0.5 0.640625
vt 0.515625 0.734375
vt 0.5 0.734375
vt 0.546875 0.640625
vt 0.5625 0.640625
vt 0.5625 0.734375
vt 0.546875 0.640625
vt 0.5625 0.734375
vt 0.546875 0.734375
vt 0.890625 0.640625
vt 0.90625 0.640625
vt 0.90625 0.6875
vt 0.890625 0.640625
vt 0.90625 0.6875
vt 0.890625 0.6875
vt 0.9375 0.640625
vt 0.953125 0.640625
vt 0.953125 0.671875
vt 0.9375 0.640625
vt 0.953125 0.671875
vt 0.9375 0.671875
vt 0.015625 0.328125
vt 0.984375 0.328125
vt 0.984375 0.453125
vt 0.015625 0.328125
vt 0.984375 0.453125
vt 0.015625 0.453125
vt 0.640625 0.640625
vt 0.65625 0.640625
vt 0.65625 0.734375
vt 0.640625 0.640625
vt 0.65625 0.734375
vt 0.640625 0.734375
vt 0.84375 0.640625
vt 0.859375 0.640625
vt 0.859375 0.703125
vt 0.84375 0.640625
vt 0.859375 0.703125
vt 0.84375 0.703125
vt 0.6875 0.796875
vt 0.703125 0.796875
vt 0.703125 0.8125
vt 0.6875 0.796875
vt 0.703125 0.8125
vt 0.6875 0.8125
vt 0.203125 0.640625
vt 0.296875 0.640625
vt 0.296875 0.734375
vt 0.203125 0.640625
vt 0.296875 0.734375
vt 0.203125 0.734375
vt 0.0625 0.640625
vt 0.078125 0.640625
vt 0.078125 0.765625
vt 0.0625 0.640625
vt 0.078125 0.765625
vt 0.0625 0.765625
vt 0.140625 0.796875
vt 0.234375 0.796875
vt 0.234375 0.8125
vt 0.140625 0.796875
vt 0.234375 0.8125
vt 0.140625 0.8125
vt 0.015625 0.796875
vt 0.109375 0.796875
vt 0.109375 0.8125
vt 0.015625 0.796875
vt 0.109375 0.8125
vt 0.015625 0.8125
vt 0.109375 0.640625
vt 0.125 0.640625
vt 0.125 0.765625
vt 0.109375 0.640625
vt 0.125 0.765625
vt 0.109375 0.765625
vt 0.328125 0.640625
vt 0.421875 0.640625
vt 0.421875 0.734375
vt 0.328125 0.640625
vt 0.421875 0.734375
vt 0.328125 0.734375
vt 0.015625 0.640625
vt 0.03125 0.640625
vt 0.03125 0.765625
vt 0.015625 0.640625
vt 0.03125 0.765625
vt 0.015625 0.765625
vt 0.265625 0.796875
vt 0.359375 0.796875
vt 0.359375 0.8125
vt 0.265625 0.796875
vt 0.359375 0.8125
vt 0.265625 0.8125
vt 0.15625 0.640625
vt 0.171875 0.640625
vt 0.171875 0.75
vt 0.15625 0.640625
vt 0.171875 0.75
vt 0.15625 0.75
vt 0.390625 0.796875
vt 0.453125 0.796875
vt 0.453125 0.8125
vt 0.390625 0.796875
vt 0.453125 0.8125
vt 0.390625 0.8125
vt 0.484375 0.796875
vt 0.515625 0.796875
vt 0.515625 0.8125
vt 0.484375 0.796875
vt 0.515625 0.8125
vt 0.484375 0.8125
vt 0.640625 0.796875
vt 0.65625 0.796875
vt 0.65625 0.8125
vt 0.640625 0.796875
vt 0.65625 0.8125
vt 0.640625 0.8125
vt 0.015625 0.171875
vt 0.984375 0.171875
vt 0.984375 0.296875
vt 0.015625 0.171875
vt 0.984375 0.296875
vt 0.015625 0.296875
vt 0.734375 0.640625
vt 0.75 0.640625
vt 0.75 0.734375
vt 0.734375 0.640625
vt 0.75 0.734375
vt 0.734375 0.734375
vt 0.6875 0.640625
vt 0.703125 0.640625
vt 0.703125 0.734375
vt 0.6875 0.640625
vt 0.703125 0.734375
vt 0.6875 0.734375
vt 0.546875 0.796875
vt 0.5625 0.796875
vt 0.5625 0.8125
vt 0.546875 0.796875
vt 0.5625 0.8125
vt 0.546875 0.8125
vt 0.015625 0.015625
vt 0.984375 0.015625
vt 0.984375 0.140625
vt 0.015625 0.015625
vt 0.984375 0.140625
vt 0.015625 0.140625
vt 0.453125 0.640625
vt 0.46875 0.640625
vt 0.46875 0.734375
vt 0.453125 0.640625
vt 0.46875 0.734375
vt 0.453125 0.734375
vt 0.59375 0.640625
vt 0.609375 0.640625
vt 0.609375 0.734375
vt 0.59375 0.640625
vt 0.609375 0.734375
vt 0.59375 0.734375
vt 0.59375 0.796875
vt 0.609375 0.796875
vt 0.609375 0.8125
vt 0.59375 0.796875
vt 0.609375 0.8125
vt 0.59375 0.8125

# 180 Vertex Normals
vn 0.0 1.0 0.0
vn 0.0 1.0 0.0
vn 0.0 1.0 0.0
vn 0.0 1.0 0.0
vn 0.0 1.0 0.0
vn 0.0 1.0 0.0
vn 0.0 1.0 0.0
vn 0.0 1.0 0.0
vn 0.0 1.0 0.0
vn 0.0 1.0 0.0
vn 0.0 1.0 0.0
vn 0.0 1.0 0.0
vn 0.0 1.0 0.0
vn 0.0 1.0 0.0
vn 0.0 1.0 0.0
vn 0.0 1.0 0.0
vn 0.0 1.0 0.0
vn 0.0 1.0 0.0
vn 0.0 1.0 0.0
vn 0.0 1.0 0.0
vn 0.0 1.0 0.0
vn 0.0 1.0 0.0
vn 0.0 1.0 0.0
vn 0.0 1.0 0.0
vn 0.0 1.0 0.0
vn 0.0 1.0 0.0
vn 0.0 1.0 0.0
vn 0.0 1.0 0.0
vn 0.0 1.0 0.0
vn 0.0 1.0 0.0
vn 0.0 1.0 0.0
vn 0.0 1.0 0.0
vn 0.0 1.0 0.0
vn 0.0 1.0 0.0
vn 0.0 1.0 0.0
vn 0.0 1.0 0.0
vn 0.0 -1.0 0.0
vn 0.0 -1.0 0.0
vn 0.0 -1.0 0.0
vn 0.0 -1.0 0.0
vn 0.0 -1.0 0.0
vn 0.0 -1.0 0.0
vn 0.0 -1.0 0.0
vn 0.0 -1.0 0.0
vn 0.0 -1.0 0.0
vn 0.0 -1.0 0.0
vn 0.0 -1.0 0.0
vn 0.0 -1.0 0.0
vn 0.0 -1.0 0.0
vn 0.0 -1.0 0.0
vn 0.0 -1.0 0.0
vn 0.0 -1.0 0.0
vn 0.0 -1.0 0.0
vn 0.0 -1.0 0.0
vn 0.0 -1.0 0.0
vn 0.0 -1.0 0.0
vn 0.0 -1.0 0.0
vn 0.0 -1.0 0.0
vn 0.0 -1.0 0.0
vn 0.0 -1.0 0.0
vn 1.0 0.0 0.0
vn 1.0 0.0 0.0
vn 1.0 0.0 0.0
vn 1.0 0.0 0.0
vn 1.0 0.0 0.0
vn 1.0 0.0 0.0
vn 1.0 0.0 0.0
vn 1.0 0.0 0.0
vn 1.0 0.0 0.0
vn 1.0 0.0 0.0
vn 1.0 0.0 0.0
vn 1.0 0.0 0.0
vn 1.0 0.0 0.0
vn 1.0 0.0 0.0
vn 1.0 0.0 0.0
vn 1.0 0.0 0.0
vn 1.0 0.0 0.0
vn 1.0 0.0 0.0
vn 1.0 0.0 0.0
vn 1.0 0.0 0.0
vn 1.0 0.0 0.0
vn 1.0 0.0 0.0
vn 1.0 0.0 0.0
vn 1.0 0.0 0.0
vn 1.0 0.0 0.0
vn 1.0 0.0 0.0
vn 1.0 0.0 0.0
vn 1.0 0.0 0.0
vn 1.0 0.0 0.0
vn 1.0 0.0 0.0
vn -1.0 0.0 0.0
vn -1.0 0.0 0.0
vn -1.0 0.0 0.0
vn -1.0 0.0 0.0
vn -1.0 0.0 0.0
vn -1.0 0.0 0.0
vn -1.0 0.0 0.0
vn -1.0 0.0 0.0
vn -1.0 0.0 0.0
vn -1.0 0.0 0.0
vn -1.0 0.0 0.0
vn -1.0 0.0 0.0
vn -1.0 0.0 0.0
vn -1.0 0.0 0.0
vn -1.0 0.0 0.0
vn -1.0 0.0 0.0
vn -1.0 0.0 0.0
vn -1.0 0.0 0.0
vn -1.0 0.0 0.0
vn -1.0 0.0 0.0
vn -1.0 0.0 0.0
vn -1.0 0.0 0.0
vn -1.0 0.0 0.0
vn -1.0 0.0 0.0
vn -1.0 0.0 0.0
vn -1.0 0.0 0.0
vn -1.0 0.0 0.0
vn -1.0 0.0 0.0
vn -1.0 0.0 0.0
vn -1.0 0.0 0.0
vn -1.0 0.0 0.0
vn -1.0 0.0 0.0
vn -1.0 0.0 0.0
vn -1.0 0.0 0.0
vn -1.0 0.0 0.0
vn -1.0 0.0 0.0
vn -1.0 0.0 0.0
vn -1.0 0.0 0.0
vn -1.0 0.0 0.0
vn -1.0 0.0 0.0
vn -1.0 0.0 0.0
vn -1.0 0.0 0.0
vn 0.0 0.0 -1.0
vn 0.0 0.0 -1.0
vn 0.0 0.0 -1.0
vn 0.0 0.0 -1.0
vn 0.0 0.0 -1.0
vn 0.0 0.0 -1.0
vn 0.0 0.0 -1.0
vn 0.0 0.0 -1.0
vn 0.0 0.0 -1.0
vn 0.0 0.0 -1.0
vn 0.0 0.0 -1.0
vn 0.0 0.0 -1.0
vn 0.0 0.0 -1.0
vn 0.0 0.0 -1.0
vn 0.0 0.0 -1.0
vn 0.0 0.0 -1.0
vn 0.0 0.0 -1.0
vn 0.0 0.0 -1.0
vn 0.0 0.0 -1.0
vn 0.0 0.0 -1.0
vn 0.0 0.0 -1.0
vn 0.0 0.0 -1.0
vn 0.0 0.0 -1.0
vn 0.0 0.0 -1.0
vn 0.0 0.0 1.0
vn 0.0 0.0 1.0
vn 0.0 0.0 1.0
vn 0.0 0.0 1.0
vn 0.0 0.0 1.0
vn 0.0 0.0 1.0
vn 0.0 0.0 1.0
vn 0.0 0.0 1.0
vn 0.0 0.0 1.0
vn 0.0 0.0 1.0
vn 0.0 0.0 1.0
vn 0.0 0.0 1.0
vn 0.0 0.0 1.0
vn 0.0 0.0 1.0
vn 0.0 0.0 1.0
vn 0.0 0.0 1.0
vn 0.0 0.0 1.0
vn 0.0 0.0 1.0
vn 0.0 0.0 1.0
vn 0.0 0.0 1.0
vn 0.0 0.0 1.0
vn 0.0 0.0 1.0
vn 0.0 0.0 1.0
vn 0.0 0.0 1.0

# log_4, 60 grouped triangles

usemtl log_4-tex.tex
o log_4
g log_4

f 1/1/1 2/2/2 3/3/3
f 1/4/4 3/5/5 4/6/6
f 5/7/7 6/8/8 7/9/9
f 5/10/10 7/11/11 8/12/12
f 9/13/13 10/14/14 11/15/15
f 9/16/16 11/17/17 12/18/18
f 13/19/19 14/20/20 15/21/21
f 13/22/22 15/23/23 16/24/24
f 17/25/25 18/26/26 19/27/27
f 17/28/28 19/29/29 20/30/30
f 21/31/31 22/32/32 23/33/33
f 21/34/34 23/35/35 24/36/36
f 25/37/37 26/38/38 27/39/39
f 25/40/40 27/41/41 28/42/42
f 29/43/43 30/44/44 31/45/45
f 29/46/46 31/47/47 32/48/48
f 33/49/49 34/50/50 35/51/51
f 33/52/52 35/53/53 36/54/54
f 37/55/55 38/56/56 39/57/57
f 37/58/58 39/59/59 40/60/60
f 41/61/61 42/62/62 43/63/63
f 41/64/64 43/65/65 44/66/66
f 45/67/67 46/68/68 47/69/69
f 45/70/70 47/71/71 48/72/72
f 49/73/73 50/74/74 51/75/75
f 49/76/76 51/77/77 52/78/78
f 53/79/79 54/80/80 55/81/81
f 53/82/82 55/83/83 56/84/84
f 57/85/85 58/86/86 59/87/87
f 57/88/88 59/89/89 60/90/90
f 61/91/91 62/92/92 63/93/93
f 61/94/94 63/95/95 64/96/96
f 65/97/97 66/98/98 67/99/99
f 65/100/100 67/101/101 68/102/102
f 69/103/103 70/104/104 71/105/105
f 69/106/106 71/107/107 72/108/108
f 73/109/109 74/110/110 75/111/111
f 73/112/112 75/113/113 76/114/114
f 77/115/115 78/116/116 79/117/117
f 77/118/118 79/119/119 80/120/120
f 81/121/121 82/122/122 83/123/123
f 81/124/124 83/125/125 84/126/126
f 85/127/127 86/128/128 87/129/129
f 85/130/130 87/131/131 88/132/132
f 89/133/133 90/134/134 91/135/135
f 89/136/136 91/137/137 92/138/138
f 93/139/139 94/140/140 95/141/141
f 93/142/142 95/143/143 96/144/144
f 97/145/145 98/146/146 99/147/147
f 97/148/148 99/149/149 100/150/150
f 101/151/151 102/152/152 103/153/153
f 101/154/154 103/155/155 104/156/156
f 105/157/157 106/158/158 107/159/159
f 105/160/160 107/161/161 108/162/162
f 109/163/163 110/164/164 111/165/165
f 109/166/166 111/167/167 112/168/168
f 113/169/169 114/170/170 115/171/171
f 113/172/172 115/173/173 116/174/174
f 117/175/175 118/176/176 119/177/177
f 117/178/178 119/179/179 120/180/180
