# Wavefront OBJ file
# Exported by Misfit Model 3D 1.2.4
# Sun Oct 25 18:17:18 2015

mtllib coin.mtl

# 96 Vertices
v 0.21875 0.0625 -0.15625
v -0.03125 0.0625 -0.15625
v -0.03125 0.0625 0.15625
v 0.21875 0.0625 0.15625
v -0.09375 0.0625 -0.21875
v -0.15625 0.0625 -0.21875
v -0.15625 0.0625 0.21875
v -0.09375 0.0625 0.21875
v -0.03125 0.0625 -0.21875
v -0.09375 0.0625 -0.21875
v -0.09375 0.0625 0.15625
v -0.03125 0.0625 0.15625
v -0.15625 0.0625 -0.15625
v -0.21875 0.0625 -0.15625
v -0.21875 0.0625 0.15625
v -0.15625 0.0625 0.15625
v 0.15625 0.0625 0.15625
v -0.09375 0.0625 0.15625
v -0.09375 0.0625 0.21875
v 0.15625 0.0625 0.21875
v 0.15625 0.0625 -0.21875
v -0.03125 0.0625 -0.21875
v -0.03125 0.0625 -0.15625
v 0.15625 0.0625 -0.15625
v 0.21875 0.0 0.15625
v -0.03125 0.0 0.15625
v -0.03125 0.0 -0.15625
v 0.21875 0.0 -0.15625
v -0.09375 0.0 0.21875
v -0.15625 0.0 0.21875
v -0.15625 0.0 -0.21875
v -0.09375 0.0 -0.21875
v -0.03125 0.0 0.15625
v -0.09375 0.0 0.15625
v -0.09375 0.0 -0.21875
v -0.03125 0.0 -0.21875
v -0.15625 0.0 0.15625
v -0.21875 0.0 0.15625
v -0.21875 0.0 -0.15625
v -0.15625 0.0 -0.15625
v 0.15625 0.0 0.21875
v -0.09375 0.0 0.21875
v -0.09375 0.0 0.15625
v 0.15625 0.0 0.15625
v 0.15625 0.0 -0.15625
v -0.03125 0.0 -0.15625
v -0.03125 0.0 -0.21875
v 0.15625 0.0 -0.21875
v 0.21875 0.0625 -0.15625
v 0.21875 0.0625 0.15625
v 0.21875 0.0 0.15625
v 0.21875 0.0 -0.15625
v 0.15625 0.0625 0.15625
v 0.15625 0.0625 0.21875
v 0.15625 0.0 0.21875
v 0.15625 0.0 0.15625
v 0.15625 0.0625 -0.21875
v 0.15625 0.0625 -0.15625
v 0.15625 0.0 -0.15625
v 0.15625 0.0 -0.21875
v -0.21875 0.0 -0.15625
v -0.21875 0.0 0.15625
v -0.21875 0.0625 0.15625
v -0.21875 0.0625 -0.15625
v -0.15625 0.0 0.15625
v -0.15625 0.0 0.21875
v -0.15625 0.0625 0.21875
v -0.15625 0.0625 0.15625
v -0.15625 0.0 -0.21875
v -0.15625 0.0 -0.15625
v -0.15625 0.0625 -0.15625
v -0.15625 0.0625 -0.21875
v 0.15625 0.0 -0.21875
v -0.15625 0.0 -0.21875
v -0.15625 0.0625 -0.21875
v 0.15625 0.0625 -0.21875
v 0.21875 0.0 -0.15625
v 0.15625 0.0 -0.15625
v 0.15625 0.0625 -0.15625
v 0.21875 0.0625 -0.15625
v -0.15625 0.0 -0.15625
v -0.21875 0.0 -0.15625
v -0.21875 0.0625 -0.15625
v -0.15625 0.0625 -0.15625
v 0.15625 0.0625 0.21875
v -0.15625 0.0625 0.21875
v -0.15625 0.0 0.21875
v 0.15625 0.0 0.21875
v 0.21875 0.0625 0.15625
v 0.15625 0.0625 0.15625
v 0.15625 0.0 0.15625
v 0.21875 0.0 0.15625
v -0.15625 0.0625 0.15625
v -0.21875 0.0625 0.15625
v -0.21875 0.0 0.15625
v -0.15625 0.0 0.15625

# 144 Texture Coordinates
vt 0.127997 0.761843
vt 0.252997 0.761843
vt 0.252997 0.918093
vt 0.127997 0.761843
vt 0.252997 0.918093
vt 0.127997 0.918093
vt 0.026684 0.56093
vt 0.057934 0.56093
vt 0.057934 0.77968
vt 0.026684 0.56093
vt 0.057934 0.77968
vt 0.026684 0.77968
vt 0.481988 0.761843
vt 0.498063 0.761843
vt 0.498063 0.949343
vt 0.481988 0.761843
vt 0.498063 0.949343
vt 0.481988 0.949343
vt 0.884132 0.780108
vt 0.915382 0.780108
vt 0.915382 0.936358
vt 0.884132 0.780108
vt 0.915382 0.936358
vt 0.884132 0.936358
vt 0.223316 0.451912
vt 0.348316 0.451912
vt 0.348316 0.483162
vt 0.223316 0.451912
vt 0.348316 0.483162
vt 0.223316 0.483162
vt 0.401684 0.534104
vt 0.495434 0.534104
vt 0.495434 0.565354
vt 0.401684 0.534104
vt 0.495434 0.565354
vt 0.401684 0.565354
vt 0.40625 0.793807
vt 0.53125 0.793807
vt 0.53125 0.950057
vt 0.40625 0.793807
vt 0.53125 0.950057
vt 0.40625 0.950057
vt 0.120434 0.56093
vt 0.151684 0.56093
vt 0.151684 0.77968
vt 0.120434 0.56093
vt 0.151684 0.77968
vt 0.120434 0.77968
vt 0.307934 0.793807
vt 0.339184 0.793807
vt 0.339184 0.981307
vt 0.307934 0.793807
vt 0.339184 0.981307
vt 0.307934 0.981307
vt 0.790382 0.780108
vt 0.821632 0.780108
vt 0.821632 0.936358
vt 0.790382 0.780108
vt 0.821632 0.936358
vt 0.790382 0.936358
vt 0.035816 0.451912
vt 0.160816 0.451912
vt 0.160816 0.483162
vt 0.035816 0.451912
vt 0.160816 0.483162
vt 0.035816 0.483162
vt 0.557934 0.534104
vt 0.651684 0.534104
vt 0.651684 0.565354
vt 0.557934 0.534104
vt 0.651684 0.565354
vt 0.557934 0.565354
vt 0.017551 0.536244
vt 0.173801 0.536244
vt 0.173801 0.567494
vt 0.017551 0.536244
vt 0.173801 0.567494
vt 0.017551 0.567494
vt 0.125 0.481735
vt 0.15625 0.481735
vt 0.15625 0.512985
vt 0.125 0.481735
vt 0.15625 0.512985
vt 0.125 0.512985
vt 0.03125 0.481735
vt 0.0625 0.481735
vt 0.0625 0.512985
vt 0.03125 0.481735
vt 0.0625 0.512985
vt 0.03125 0.512985
vt 0.455051 0.536244
vt 0.611301 0.536244
vt 0.611301 0.567494
vt 0.455051 0.536244
vt 0.611301 0.567494
vt 0.455051 0.567494
vt 0.3125 0.481735
vt 0.34375 0.481735
vt 0.34375 0.512985
vt 0.3125 0.481735
vt 0.34375 0.512985
vt 0.3125 0.512985
vt 0.21875 0.481735
vt 0.25 0.481735
vt 0.25 0.512985
vt 0.21875 0.481735
vt 0.25 0.512985
vt 0.21875 0.512985
vt 0.641838 0.536244
vt 0.798088 0.536244
vt 0.798088 0.567494
vt 0.641838 0.536244
vt 0.798088 0.567494
vt 0.641838 0.567494
vt 0.723316 0.529538
vt 0.754566 0.529538
vt 0.754566 0.560788
vt 0.723316 0.529538
vt 0.754566 0.560788
vt 0.723316 0.560788
vt 0.883419 0.791952
vt 0.914669 0.791952
vt 0.914669 0.823202
vt 0.883419 0.791952
vt 0.914669 0.823202
vt 0.883419 0.823202
vt 0.204338 0.536244
vt 0.360588 0.536244
vt 0.360588 0.567494
vt 0.204338 0.536244
vt 0.360588 0.567494
vt 0.204338 0.567494
vt 0.910816 0.529538
vt 0.942066 0.529538
vt 0.942066 0.560788
vt 0.910816 0.529538
vt 0.942066 0.560788
vt 0.910816 0.560788
vt 0.789669 0.885702
vt 0.820919 0.885702
vt 0.820919 0.916952
vt 0.789669 0.885702
vt 0.820919 0.916952
vt 0.789669 0.916952

# 144 Vertex Normals
vn 0.0 1.0 0.0
vn 0.0 1.0 0.0
vn 0.0 1.0 0.0
vn 0.0 1.0 0.0
vn 0.0 1.0 0.0
vn 0.0 1.0 0.0
vn 0.0 1.0 0.0
vn 0.0 1.0 0.0
vn 0.0 1.0 0.0
vn 0.0 1.0 0.0
vn 0.0 1.0 0.0
vn 0.0 1.0 0.0
vn 0.0 1.0 0.0
vn 0.0 1.0 0.0
vn 0.0 1.0 0.0
vn 0.0 1.0 0.0
vn 0.0 1.0 0.0
vn 0.0 1.0 0.0
vn 0.0 1.0 0.0
vn 0.0 1.0 0.0
vn 0.0 1.0 0.0
vn 0.0 1.0 0.0
vn 0.0 1.0 0.0
vn 0.0 1.0 0.0
vn 0.0 1.0 0.0
vn 0.0 1.0 0.0
vn 0.0 1.0 0.0
vn 0.0 1.0 0.0
vn 0.0 1.0 0.0
vn 0.0 1.0 0.0
vn 0.0 1.0 0.0
vn 0.0 1.0 0.0
vn 0.0 1.0 0.0
vn 0.0 1.0 0.0
vn 0.0 1.0 0.0
vn 0.0 1.0 0.0
vn 0.0 -1.0 0.0
vn 0.0 -1.0 0.0
vn 0.0 -1.0 0.0
vn 0.0 -1.0 0.0
vn 0.0 -1.0 0.0
vn 0.0 -1.0 0.0
vn 0.0 -1.0 0.0
vn 0.0 -1.0 0.0
vn 0.0 -1.0 0.0
vn 0.0 -1.0 0.0
vn 0.0 -1.0 0.0
vn 0.0 -1.0 0.0
vn 0.0 -1.0 0.0
vn 0.0 -1.0 0.0
vn 0.0 -1.0 0.0
vn 0.0 -1.0 0.0
vn 0.0 -1.0 0.0
vn 0.0 -1.0 0.0
vn 0.0 -1.0 0.0
vn 0.0 -1.0 0.0
vn 0.0 -1.0 0.0
vn 0.0 -1.0 0.0
vn 0.0 -1.0 0.0
vn 0.0 -1.0 0.0
vn 0.0 -1.0 0.0
vn 0.0 -1.0 0.0
vn 0.0 -1.0 0.0
vn 0.0 -1.0 0.0
vn 0.0 -1.0 0.0
vn 0.0 -1.0 0.0
vn 0.0 -1.0 0.0
vn 0.0 -1.0 0.0
vn 0.0 -1.0 0.0
vn 0.0 -1.0 0.0
vn 0.0 -1.0 0.0
vn 0.0 -1.0 0.0
vn 1.0 0.0 0.0
vn 1.0 0.0 0.0
vn 1.0 0.0 0.0
vn 1.0 0.0 0.0
vn 1.0 0.0 0.0
vn 1.0 0.0 0.0
vn 1.0 0.0 0.0
vn 1.0 0.0 0.0
vn 1.0 0.0 0.0
vn 1.0 0.0 0.0
vn 1.0 0.0 0.0
vn 1.0 0.0 0.0
vn 1.0 0.0 0.0
vn 1.0 0.0 0.0
vn 1.0 0.0 0.0
vn 1.0 0.0 0.0
vn 1.0 0.0 0.0
vn 1.0 0.0 0.0
vn -1.0 0.0 0.0
vn -1.0 0.0 0.0
vn -1.0 0.0 0.0
vn -1.0 0.0 0.0
vn -1.0 0.0 0.0
vn -1.0 0.0 0.0
vn -1.0 0.0 0.0
vn -1.0 0.0 0.0
vn -1.0 0.0 0.0
vn -1.0 0.0 0.0
vn -1.0 0.0 0.0
vn -1.0 0.0 0.0
vn -1.0 0.0 0.0
vn -1.0 0.0 0.0
vn -1.0 0.0 0.0
vn -1.0 0.0 0.0
vn -1.0 0.0 0.0
vn -1.0 0.0 0.0
vn 0.0 0.0 -1.0
vn 0.0 0.0 -1.0
vn 0.0 0.0 -1.0
vn 0.0 0.0 -1.0
vn 0.0 0.0 -1.0
vn 0.0 0.0 -1.0
vn 0.0 0.0 -1.0
vn 0.0 0.0 -1.0
vn 0.0 0.0 -1.0
vn 0.0 0.0 -1.0
vn 0.0 0.0 -1.0
vn 0.0 0.0 -1.0
vn 0.0 0.0 -1.0
vn 0.0 0.0 -1.0
vn 0.0 0.0 -1.0
vn 0.0 0.0 -1.0
vn 0.0 0.0 -1.0
vn 0.0 0.0 -1.0
vn 0.0 0.0 1.0
vn 0.0 0.0 1.0
vn 0.0 0.0 1.0
vn 0.0 0.0 1.0
vn 0.0 0.0 1.0
vn 0.0 0.0 1.0
vn 0.0 0.0 1.0
vn 0.0 0.0 1.0
vn 0.0 0.0 1.0
vn 0.0 0.0 1.0
vn 0.0 0.0 1.0
vn 0.0 0.0 1.0
vn 0.0 0.0 1.0
vn 0.0 0.0 1.0
vn 0.0 0.0 1.0
vn 0.0 0.0 1.0
vn 0.0 0.0 1.0
vn 0.0 0.0 1.0

# coin, 48 grouped triangles

usemtl coin-tex.tex
o coin
g coin

f 1/1/1 2/2/2 3/3/3
f 1/4/4 3/5/5 4/6/6
f 5/7/7 6/8/8 7/9/9
f 5/10/10 7/11/11 8/12/12
f 9/13/13 10/14/14 11/15/15
f 9/16/16 11/17/17 12/18/18
f 13/19/19 14/20/20 15/21/21
f 13/22/22 15/23/23 16/24/24
f 17/25/25 18/26/26 19/27/27
f 17/28/28 19/29/29 20/30/30
f 21/31/31 22/32/32 23/33/33
f 21/34/34 23/35/35 24/36/36
f 25/37/37 26/38/38 27/39/39
f 25/40/40 27/41/41 28/42/42
f 29/43/43 30/44/44 31/45/45
f 29/46/46 31/47/47 32/48/48
f 33/49/49 34/50/50 35/51/51
f 33/52/52 35/53/53 36/54/54
f 37/55/55 38/56/56 39/57/57
f 37/58/58 39/59/59 40/60/60
f 41/61/61 42/62/62 43/63/63
f 41/64/64 43/65/65 44/66/66
f 45/67/67 46/68/68 47/69/69
f 45/70/70 47/71/71 48/72/72
f 49/73/73 50/74/74 51/75/75
f 49/76/76 51/77/77 52/78/78
f 53/79/79 54/80/80 55/81/81
f 53/82/82 55/83/83 56/84/84
f 57/85/85 58/86/86 59/87/87
f 57/88/88 59/89/89 60/90/90
f 61/91/91 62/92/92 63/93/93
f 61/94/94 63/95/95 64/96/96
f 65/97/97 66/98/98 67/99/99
f 65/100/100 67/101/101 68/102/102
f 69/103/103 70/104/104 71/105/105
f 69/106/106 71/107/107 72/108/108
f 73/109/109 74/110/110 75/111/111
f 73/112/112 75/113/113 76/114/114
f 77/115/115 78/116/116 79/117/117
f 77/118/118 79/119/119 80/120/120
f 81/121/121 82/122/122 83/123/123
f 81/124/124 83/125/125 84/126/126
f 85/127/127 86/128/128 87/129/129
f 85/130/130 87/131/131 88/132/132
f 89/133/133 90/134/134 91/135/135
f 89/136/136 91/137/137 92/138/138
f 93/139/139 94/140/140 95/141/141
f 93/142/142 95/143/143 96/144/144
