# MagicaVoxel @ Ephtracy

# group
o 

# material
mtllib juwan.mtl
usemtl palette

# normals
vn -1 0 0
vn 1 0 0
vn 0 0 1
vn 0 0 -1
vn 0 -1 0
vn 0 1 0

# texcoords
vt 0.537109 0.5
vt 0.962891 0.5
vt 0.978516 0.5
vt 0.986328 0.5
vt 0.994141 0.5

# verts
v 1.6 2.6 -2
v 1.6 2.6 -2.1
v 1.6 2.9 -2
v 1.6 2.9 -2.1
v 1.6 3.1 -2
v 1.6 3.1 -2.1
v 1.7 2.5 -1.9
v 1.7 2.5 -2.2
v 1.7 2.6 -2
v 1.7 2.6 -2.1
v 1.7 2.7 -1.9
v 1.7 2.7 -2
v 1.7 2.7 -2.1
v 1.7 2.7 -2.2
v 1.7 2.9 -2
v 1.7 2.9 -2.1
v 1.7 3.1 -1.9
v 1.7 3.1 -2
v 1.7 3.1 -2.1
v 1.7 3.1 -2.2
v 1.8 2 -1.9
v 1.8 2 -2.1
v 1.8 2.1 -1.9
v 1.8 2.1 -2
v 1.8 2.1 -2.1
v 1.8 2.3 -2
v 1.8 2.3 -2.1
v 1.8 2.5 -2
v 1.8 2.5 -2.1
v 1.8 3.1 -1.9
v 1.8 3.1 -2
v 1.8 3.1 -2.1
v 1.8 3.2 -2
v 1.8 3.2 -2.1
v 1.8 3.2 -2.2
v 1.8 3.3 -1.9
v 1.8 3.3 -2.1
v 1.8 3.5 -1.9
v 1.8 3.5 -2.2
v 1.9 3.1 -2.1
v 1.9 3.1 -2.2
v 1.9 3.2 -2.1
v 1.9 3.2 -2.2
v 2 2 -1.9
v 2 2 -2.1
v 2 2.1 -1.9
v 2 2.1 -2
v 2 2.1 -2.1
v 2 2.3 -2
v 2 2.3 -2.1
v 2 2.5 -2
v 2 2.5 -2.1
v 1.9 2 -1.9
v 1.9 2 -2.1
v 1.9 2.1 -1.9
v 1.9 2.1 -2
v 1.9 2.1 -2.1
v 1.9 2.3 -2
v 1.9 2.3 -2.1
v 1.9 2.5 -2
v 1.9 2.5 -2.1
v 2 3.1 -2.1
v 2 3.1 -2.2
v 2 3.2 -2.1
v 2 3.2 -2.2
v 2.1 2 -1.9
v 2.1 2 -2.1
v 2.1 2.1 -1.9
v 2.1 2.1 -2
v 2.1 2.1 -2.1
v 2.1 2.3 -2
v 2.1 2.3 -2.1
v 2.1 2.5 -2
v 2.1 2.5 -2.1
v 2.1 3.1 -1.9
v 2.1 3.1 -2
v 2.1 3.1 -2.1
v 2.1 3.2 -2
v 2.1 3.2 -2.1
v 2.1 3.2 -2.2
v 2.1 3.3 -1.9
v 2.1 3.3 -2.1
v 2.1 3.5 -1.9
v 2.1 3.5 -2.2
v 2.2 2.5 -1.9
v 2.2 2.5 -2.2
v 2.2 2.6 -2
v 2.2 2.6 -2.1
v 2.2 2.7 -1.9
v 2.2 2.7 -2
v 2.2 2.7 -2.1
v 2.2 2.7 -2.2
v 2.2 2.9 -2
v 2.2 2.9 -2.1
v 2.2 3.1 -1.9
v 2.2 3.1 -2
v 2.2 3.1 -2.1
v 2.2 3.1 -2.2
v 2.3 2.6 -2
v 2.3 2.6 -2.1
v 2.3 2.9 -2
v 2.3 2.9 -2.1
v 2.3 3.1 -2
v 2.3 3.1 -2.1
v 1.7 2.5 -1.9
v 1.7 2.7 -1.9
v 1.7 3.1 -1.9
v 1.8 2 -1.9
v 1.8 2.1 -1.9
v 1.8 3.1 -1.9
v 1.8 3.3 -1.9
v 1.8 3.5 -1.9
v 1.9 2 -1.9
v 1.9 2.1 -1.9
v 1.9 3 -1.9
v 1.9 3.1 -1.9
v 1.9 3.2 -1.9
v 1.9 3.3 -1.9
v 2 2 -1.9
v 2 2.1 -1.9
v 2 3 -1.9
v 2 3.1 -1.9
v 2 3.2 -1.9
v 2 3.3 -1.9
v 2.1 2 -1.9
v 2.1 2.1 -1.9
v 2.1 3.1 -1.9
v 2.1 3.3 -1.9
v 2.1 3.5 -1.9
v 2.2 2.5 -1.9
v 2.2 2.7 -1.9
v 2.2 3.1 -1.9
v 1.6 2.6 -2
v 1.6 2.9 -2
v 1.6 3.1 -2
v 1.7 2.6 -2
v 1.7 2.7 -2
v 1.7 2.9 -2
v 1.7 3.1 -2
v 1.8 2.1 -2
v 1.8 2.3 -2
v 1.8 2.5 -2
v 1.9 2.1 -2
v 1.9 2.3 -2
v 1.9 2.5 -2
v 2 2.1 -2
v 2 2.3 -2
v 2 2.5 -2
v 2.1 2.1 -2
v 2.1 2.3 -2
v 2.1 2.5 -2
v 2.2 2.6 -2
v 2.2 2.7 -2
v 2.2 2.9 -2
v 2.2 3.1 -2
v 2.3 2.6 -2
v 2.3 2.9 -2
v 2.3 3.1 -2
v 1.6 2.6 -2.1
v 1.6 2.9 -2.1
v 1.6 3.1 -2.1
v 1.7 2.6 -2.1
v 1.7 2.7 -2.1
v 1.7 2.9 -2.1
v 1.7 3.1 -2.1
v 1.8 2 -2.1
v 1.8 2.1 -2.1
v 1.8 2.3 -2.1
v 1.8 2.5 -2.1
v 1.8 3.1 -2.1
v 1.8 3.2 -2.1
v 1.9 2 -2.1
v 1.9 2.1 -2.1
v 1.9 2.3 -2.1
v 1.9 2.5 -2.1
v 1.9 3.1 -2.1
v 1.9 3.2 -2.1
v 2 2 -2.1
v 2 2.1 -2.1
v 2 2.3 -2.1
v 2 2.5 -2.1
v 2 3.1 -2.1
v 2 3.2 -2.1
v 2.1 2 -2.1
v 2.1 2.1 -2.1
v 2.1 2.3 -2.1
v 2.1 2.5 -2.1
v 2.1 3.1 -2.1
v 2.1 3.2 -2.1
v 2.2 2.6 -2.1
v 2.2 2.7 -2.1
v 2.2 2.9 -2.1
v 2.2 3.1 -2.1
v 2.3 2.6 -2.1
v 2.3 2.9 -2.1
v 2.3 3.1 -2.1
v 1.7 2.5 -2.2
v 1.7 2.7 -2.2
v 1.7 3.1 -2.2
v 1.8 3.2 -2.2
v 1.8 3.5 -2.2
v 1.9 3.1 -2.2
v 1.9 3.2 -2.2
v 2 3.1 -2.2
v 2 3.2 -2.2
v 2.1 3.2 -2.2
v 2.1 3.5 -2.2
v 2.2 2.5 -2.2
v 2.2 2.7 -2.2
v 2.2 3.1 -2.2
v 1.8 2 -1.9
v 1.9 2 -1.9
v 2 2 -1.9
v 2.1 2 -1.9
v 1.8 2 -2.1
v 1.9 2 -2.1
v 2 2 -2.1
v 2.1 2 -2.1
v 1.7 2.5 -1.9
v 2.2 2.5 -1.9
v 1.8 2.5 -2
v 1.9 2.5 -2
v 2 2.5 -2
v 2.1 2.5 -2
v 1.8 2.5 -2.1
v 1.9 2.5 -2.1
v 2 2.5 -2.1
v 2.1 2.5 -2.1
v 1.7 2.5 -2.2
v 2.2 2.5 -2.2
v 1.6 2.6 -2
v 1.7 2.6 -2
v 2.2 2.6 -2
v 2.3 2.6 -2
v 1.6 2.6 -2.1
v 1.7 2.6 -2.1
v 2.2 2.6 -2.1
v 2.3 2.6 -2.1
v 1.8 3.2 -2.1
v 1.9 3.2 -2.1
v 2 3.2 -2.1
v 2.1 3.2 -2.1
v 1.8 3.2 -2.2
v 1.9 3.2 -2.2
v 2 3.2 -2.2
v 2.1 3.2 -2.2
v 1.8 2.1 -1.9
v 1.9 2.1 -1.9
v 2 2.1 -1.9
v 2.1 2.1 -1.9
v 1.8 2.1 -2
v 1.9 2.1 -2
v 2 2.1 -2
v 2.1 2.1 -2
v 1.7 3.1 -1.9
v 1.8 3.1 -1.9
v 2.1 3.1 -1.9
v 2.2 3.1 -1.9
v 1.6 3.1 -2
v 1.7 3.1 -2
v 1.8 3.1 -2
v 2.1 3.1 -2
v 2.2 3.1 -2
v 2.3 3.1 -2
v 1.6 3.1 -2.1
v 1.7 3.1 -2.1
v 1.8 3.1 -2.1
v 1.9 3.1 -2.1
v 2 3.1 -2.1
v 2.1 3.1 -2.1
v 2.2 3.1 -2.1
v 2.3 3.1 -2.1
v 1.7 3.1 -2.2
v 1.9 3.1 -2.2
v 2 3.1 -2.2
v 2.2 3.1 -2.2
v 1.8 3.5 -1.9
v 2.1 3.5 -1.9
v 1.8 3.5 -2.2
v 2.1 3.5 -2.2

# faces
f 3/1/1 2/1/1 1/1/1
f 4/1/1 2/1/1 3/1/1
f 5/4/1 4/4/1 3/4/1
f 6/4/1 4/4/1 5/4/1
f 9/5/1 8/5/1 7/5/1
f 10/5/1 8/5/1 9/5/1
f 11/5/1 9/5/1 7/5/1
f 12/5/1 9/5/1 11/5/1
f 13/5/1 8/5/1 10/5/1
f 14/5/1 8/5/1 13/5/1
f 15/4/1 12/4/1 11/4/1
f 16/4/1 14/4/1 13/4/1
f 17/4/1 15/4/1 11/4/1
f 18/4/1 15/4/1 17/4/1
f 19/4/1 14/4/1 16/4/1
f 20/4/1 14/4/1 19/4/1
f 23/3/1 22/3/1 21/3/1
f 24/3/1 22/3/1 23/3/1
f 25/3/1 22/3/1 24/3/1
f 26/1/1 25/1/1 24/1/1
f 27/1/1 25/1/1 26/1/1
f 28/5/1 27/5/1 26/5/1
f 29/5/1 27/5/1 28/5/1
f 33/5/1 31/5/1 30/5/1
f 33/1/1 32/1/1 31/1/1
f 34/1/1 32/1/1 33/1/1
f 36/5/1 34/5/1 33/5/1
f 36/5/1 33/5/1 30/5/1
f 37/1/1 35/1/1 34/1/1
f 37/5/1 34/5/1 36/5/1
f 38/1/1 37/1/1 36/1/1
f 39/1/1 35/1/1 37/1/1
f 39/1/1 37/1/1 38/1/1
f 42/1/1 41/1/1 40/1/1
f 43/1/1 41/1/1 42/1/1
f 46/3/1 45/3/1 44/3/1
f 47/3/1 45/3/1 46/3/1
f 48/3/1 45/3/1 47/3/1
f 49/1/1 48/1/1 47/1/1
f 50/1/1 48/1/1 49/1/1
f 51/5/1 50/5/1 49/5/1
f 52/5/1 50/5/1 51/5/1
f 53/3/2 54/3/2 55/3/2
f 55/3/2 54/3/2 56/3/2
f 56/3/2 54/3/2 57/3/2
f 56/1/2 57/1/2 58/1/2
f 58/1/2 57/1/2 59/1/2
f 58/5/2 59/5/2 60/5/2
f 60/5/2 59/5/2 61/5/2
f 62/1/2 63/1/2 64/1/2
f 64/1/2 63/1/2 65/1/2
f 66/3/2 67/3/2 68/3/2
f 68/3/2 67/3/2 69/3/2
f 69/3/2 67/3/2 70/3/2
f 69/1/2 70/1/2 71/1/2
f 71/1/2 70/1/2 72/1/2
f 71/5/2 72/5/2 73/5/2
f 73/5/2 72/5/2 74/5/2
f 75/5/2 76/5/2 78/5/2
f 76/1/2 77/1/2 78/1/2
f 78/1/2 77/1/2 79/1/2
f 78/5/2 79/5/2 81/5/2
f 75/5/2 78/5/2 81/5/2
f 79/1/2 80/1/2 82/1/2
f 81/5/2 79/5/2 82/5/2
f 81/1/2 82/1/2 83/1/2
f 82/1/2 80/1/2 84/1/2
f 83/1/2 82/1/2 84/1/2
f 85/5/2 86/5/2 87/5/2
f 87/5/2 86/5/2 88/5/2
f 85/5/2 87/5/2 89/5/2
f 89/5/2 87/5/2 90/5/2
f 88/5/2 86/5/2 91/5/2
f 91/5/2 86/5/2 92/5/2
f 89/4/2 90/4/2 93/4/2
f 91/4/2 92/4/2 94/4/2
f 89/4/2 93/4/2 95/4/2
f 95/4/2 93/4/2 96/4/2
f 94/4/2 92/4/2 97/4/2
f 97/4/2 92/4/2 98/4/2
f 99/1/2 100/1/2 101/1/2
f 101/1/2 100/1/2 102/1/2
f 101/4/2 102/4/2 103/4/2
f 103/4/2 102/4/2 104/4/2
f 110/4/3 107/4/3 106/4/3
f 113/3/3 109/3/3 108/3/3
f 114/3/3 109/3/3 113/3/3
f 115/4/3 110/4/3 106/4/3
f 116/5/3 111/5/3 110/5/3
f 116/4/3 110/4/3 115/4/3
f 117/5/3 111/5/3 116/5/3
f 118/1/3 112/1/3 111/1/3
f 118/5/3 111/5/3 117/5/3
f 121/4/3 115/4/3 106/4/3
f 121/1/3 116/1/3 115/1/3
f 122/5/3 117/5/3 116/5/3
f 122/1/3 116/1/3 121/1/3
f 123/2/3 118/2/3 117/2/3
f 123/5/3 117/5/3 122/5/3
f 124/1/3 112/1/3 118/1/3
f 124/2/3 118/2/3 123/2/3
f 125/3/3 120/3/3 119/3/3
f 126/3/3 120/3/3 125/3/3
f 127/5/3 123/5/3 122/5/3
f 127/4/3 122/4/3 121/4/3
f 127/5/3 124/5/3 123/5/3
f 128/1/3 112/1/3 124/1/3
f 128/5/3 124/5/3 127/5/3
f 129/1/3 112/1/3 128/1/3
f 130/5/3 106/5/3 105/5/3
f 131/4/3 121/4/3 106/4/3
f 131/5/3 106/5/3 130/5/3
f 131/4/3 127/4/3 121/4/3
f 132/4/3 127/4/3 131/4/3
f 136/1/3 134/1/3 133/1/3
f 137/1/3 134/1/3 136/1/3
f 138/4/3 135/4/3 134/4/3
f 138/1/3 134/1/3 137/1/3
f 139/4/3 135/4/3 138/4/3
f 143/1/3 141/1/3 140/1/3
f 144/5/3 142/5/3 141/5/3
f 144/1/3 141/1/3 143/1/3
f 145/5/3 142/5/3 144/5/3
f 149/1/3 147/1/3 146/1/3
f 150/5/3 148/5/3 147/5/3
f 150/1/3 147/1/3 149/1/3
f 151/5/3 148/5/3 150/5/3
f 156/1/3 153/1/3 152/1/3
f 156/1/3 154/1/3 153/1/3
f 157/4/3 155/4/3 154/4/3
f 157/1/3 154/1/3 156/1/3
f 158/4/3 155/4/3 157/4/3
f 159/1/4 160/1/4 162/1/4
f 162/1/4 160/1/4 163/1/4
f 160/4/4 161/4/4 164/4/4
f 163/1/4 160/1/4 164/1/4
f 164/4/4 161/4/4 165/4/4
f 166/3/4 167/3/4 172/3/4
f 167/1/4 168/1/4 173/1/4
f 172/3/4 167/3/4 173/3/4
f 168/5/4 169/5/4 174/5/4
f 173/1/4 168/1/4 174/1/4
f 174/5/4 169/5/4 175/5/4
f 170/1/4 171/1/4 176/1/4
f 176/1/4 171/1/4 177/1/4
f 178/3/4 179/3/4 184/3/4
f 179/1/4 180/1/4 185/1/4
f 184/3/4 179/3/4 185/3/4
f 180/5/4 181/5/4 186/5/4
f 185/1/4 180/1/4 186/1/4
f 186/5/4 181/5/4 187/5/4
f 182/1/4 183/1/4 188/1/4
f 188/1/4 183/1/4 189/1/4
f 190/1/4 191/1/4 194/1/4
f 191/1/4 192/1/4 194/1/4
f 192/4/4 193/4/4 195/4/4
f 194/1/4 192/1/4 195/1/4
f 195/4/4 193/4/4 196/4/4
f 198/4/4 199/4/4 202/4/4
f 200/1/4 201/1/4 203/1/4
f 198/4/4 202/4/4 204/4/4
f 202/1/4 203/1/4 204/1/4
f 203/1/4 201/1/4 205/1/4
f 204/1/4 203/1/4 205/1/4
f 205/1/4 201/1/4 206/1/4
f 206/1/4 201/1/4 207/1/4
f 197/5/4 198/5/4 208/5/4
f 198/4/4 204/4/4 209/4/4
f 208/5/4 198/5/4 209/5/4
f 209/4/4 204/4/4 210/4/4
f 215/3/5 212/3/5 211/3/5
f 216/3/5 212/3/5 215/3/5
f 217/3/5 214/3/5 213/3/5
f 218/3/5 214/3/5 217/3/5
f 221/5/5 220/5/5 219/5/5
f 222/5/5 220/5/5 221/5/5
f 223/5/5 220/5/5 222/5/5
f 224/5/5 220/5/5 223/5/5
f 225/5/5 221/5/5 219/5/5
f 226/5/5 223/5/5 222/5/5
f 227/5/5 223/5/5 226/5/5
f 228/5/5 220/5/5 224/5/5
f 229/5/5 227/5/5 226/5/5
f 229/5/5 228/5/5 227/5/5
f 229/5/5 225/5/5 219/5/5
f 229/5/5 226/5/5 225/5/5
f 230/5/5 220/5/5 228/5/5
f 230/5/5 228/5/5 229/5/5
f 235/1/5 232/1/5 231/1/5
f 236/1/5 232/1/5 235/1/5
f 237/1/5 234/1/5 233/1/5
f 238/1/5 234/1/5 237/1/5
f 243/1/5 240/1/5 239/1/5
f 244/1/5 240/1/5 243/1/5
f 245/1/5 242/1/5 241/1/5
f 246/1/5 242/1/5 245/1/5
f 247/3/6 248/3/6 251/3/6
f 251/3/6 248/3/6 252/3/6
f 249/3/6 250/3/6 253/3/6
f 253/3/6 250/3/6 254/3/6
f 255/4/6 256/4/6 260/4/6
f 260/4/6 256/4/6 261/4/6
f 257/4/6 258/4/6 262/4/6
f 262/4/6 258/4/6 263/4/6
f 260/4/6 261/4/6 265/4/6
f 259/4/6 260/4/6 265/4/6
f 265/4/6 261/4/6 266/4/6
f 266/4/6 261/4/6 267/4/6
f 263/4/6 264/4/6 270/4/6
f 262/4/6 263/4/6 270/4/6
f 270/4/6 264/4/6 271/4/6
f 271/4/6 264/4/6 272/4/6
f 267/4/6 268/4/6 273/4/6
f 266/4/6 267/4/6 273/4/6
f 273/4/6 268/4/6 274/4/6
f 270/4/6 271/4/6 275/4/6
f 269/4/6 270/4/6 275/4/6
f 275/4/6 271/4/6 276/4/6
f 277/1/6 278/1/6 279/1/6
f 279/1/6 278/1/6 280/1/6
