# Wavefront OBJ file
# Exported by Misfit Model 3D 1.2.4
# Thu Dec 17 20:18:03 2015

mtllib tree_4.mtl

# 56 Vertices
v 0.3125 2.0 -0.3125
v -0.3125 2.0 -0.3125
v -0.3125 2.0 0.3125
v 0.3125 2.0 0.3125
v 0.1875 0.0 0.1875
v -0.1875 0.0 0.1875
v -0.1875 0.0 -0.1875
v 0.1875 0.0 -0.1875
v 0.3125 0.375 0.3125
v -0.1875 0.375 0.3125
v -0.1875 0.375 0.1875
v 0.3125 0.375 0.1875
v -0.1875 0.375 0.3125
v -0.3125 0.375 0.3125
v -0.3125 0.375 -0.1875
v -0.1875 0.375 -0.1875
v 0.3125 0.375 0.1875
v 0.1875 0.375 0.1875
v 0.1875 0.375 -0.3125
v 0.3125 0.375 -0.3125
v 0.1875 0.375 -0.1875
v -0.3125 0.375 -0.1875
v -0.3125 0.375 -0.3125
v 0.1875 0.375 -0.3125
v 0.3125 2.0 -0.3125
v 0.3125 2.0 0.3125
v 0.3125 0.375 0.3125
v 0.3125 0.375 -0.3125
v 0.1875 0.375 -0.1875
v 0.1875 0.375 0.1875
v 0.1875 0.0 0.1875
v 0.1875 0.0 -0.1875
v -0.3125 0.375 -0.3125
v -0.3125 0.375 0.3125
v -0.3125 2.0 0.3125
v -0.3125 2.0 -0.3125
v -0.1875 0.0 -0.1875
v -0.1875 0.0 0.1875
v -0.1875 0.375 0.1875
v -0.1875 0.375 -0.1875
v 0.3125 0.375 -0.3125
v -0.3125 0.375 -0.3125
v -0.3125 2.0 -0.3125
v 0.3125 2.0 -0.3125
v 0.1875 0.0 -0.1875
v -0.1875 0.0 -0.1875
v -0.1875 0.375 -0.1875
v 0.1875 0.375 -0.1875
v 0.3125 2.0 0.3125
v -0.3125 2.0 0.3125
v -0.3125 0.375 0.3125
v 0.3125 0.375 0.3125
v 0.1875 0.375 0.1875
v -0.1875 0.375 0.1875
v -0.1875 0.0 0.1875
v 0.1875 0.0 0.1875

# 84 Texture Coordinates
vt 0.03125 0.5
vt 0.1875 0.5
vt 0.1875 0.65625
vt 0.03125 0.5
vt 0.1875 0.65625
vt 0.03125 0.65625
vt 0.25 0.5
vt 0.34375 0.5
vt 0.34375 0.59375
vt 0.25 0.5
vt 0.34375 0.59375
vt 0.25 0.59375
vt 0.21875 0.71875
vt 0.34375 0.71875
vt 0.34375 0.75
vt 0.21875 0.71875
vt 0.34375 0.75
vt 0.21875 0.75
vt 0.90625 0.21875
vt 0.9375 0.21875
vt 0.9375 0.34375
vt 0.90625 0.21875
vt 0.9375 0.34375
vt 0.90625 0.34375
vt 0.90625 0.03125
vt 0.9375 0.03125
vt 0.9375 0.15625
vt 0.90625 0.03125
vt 0.9375 0.15625
vt 0.90625 0.15625
vt 0.03125 0.71875
vt 0.15625 0.71875
vt 0.15625 0.75
vt 0.03125 0.71875
vt 0.15625 0.75
vt 0.03125 0.75
vt 0.46875 0.03125
vt 0.625 0.03125
vt 0.625 0.4375
vt 0.46875 0.03125
vt 0.625 0.4375
vt 0.46875 0.4375
vt 0.875 0.5
vt 0.96875 0.5
vt 0.96875 0.59375
vt 0.875 0.5
vt 0.96875 0.59375
vt 0.875 0.59375
vt 0.25 0.03125
vt 0.40625 0.03125
vt 0.40625 0.4375
vt 0.25 0.03125
vt 0.40625 0.4375
vt 0.25 0.4375
vt 0.40625 0.5
vt 0.5 0.5
vt 0.5 0.59375
vt 0.40625 0.5
vt 0.5 0.59375
vt 0.40625 0.59375
vt 0.03125 0.03125
vt 0.1875 0.03125
vt 0.1875 0.4375
vt 0.03125 0.03125
vt 0.1875 0.4375
vt 0.03125 0.4375
vt 0.5625 0.5
vt 0.65625 0.5
vt 0.65625 0.59375
vt 0.5625 0.5
vt 0.65625 0.59375
vt 0.5625 0.59375
vt 0.6875 0.03125
vt 0.84375 0.03125
vt 0.84375 0.4375
vt 0.6875 0.03125
vt 0.84375 0.4375
vt 0.6875 0.4375
vt 0.71875 0.5
vt 0.8125 0.5
vt 0.8125 0.59375
vt 0.71875 0.5
vt 0.8125 0.59375
vt 0.71875 0.59375

# 84 Vertex Normals
vn 0.0 1.0 0.0
vn 0.0 1.0 0.0
vn 0.0 1.0 0.0
vn 0.0 1.0 0.0
vn 0.0 1.0 0.0
vn 0.0 1.0 0.0
vn 0.0 -1.0 0.0
vn 0.0 -1.0 0.0
vn 0.0 -1.0 0.0
vn 0.0 -1.0 0.0
vn 0.0 -1.0 0.0
vn 0.0 -1.0 0.0
vn 0.0 -1.0 0.0
vn 0.0 -1.0 0.0
vn 0.0 -1.0 0.0
vn 0.0 -1.0 0.0
vn 0.0 -1.0 0.0
vn 0.0 -1.0 0.0
vn 0.0 -1.0 0.0
vn 0.0 -1.0 0.0
vn 0.0 -1.0 0.0
vn 0.0 -1.0 0.0
vn 0.0 -1.0 0.0
vn 0.0 -1.0 0.0
vn 0.0 -1.0 0.0
vn 0.0 -1.0 0.0
vn 0.0 -1.0 0.0
vn 0.0 -1.0 0.0
vn 0.0 -1.0 0.0
vn 0.0 -1.0 0.0
vn 0.0 -1.0 0.0
vn 0.0 -1.0 0.0
vn 0.0 -1.0 0.0
vn 0.0 -1.0 0.0
vn 0.0 -1.0 0.0
vn 0.0 -1.0 0.0
vn 1.0 0.0 0.0
vn 1.0 0.0 0.0
vn 1.0 0.0 0.0
vn 1.0 0.0 0.0
vn 1.0 0.0 0.0
vn 1.0 0.0 0.0
vn 1.0 0.0 0.0
vn 1.0 0.0 0.0
vn 1.0 0.0 0.0
vn 1.0 0.0 0.0
vn 1.0 0.0 0.0
vn 1.0 0.0 0.0
vn -1.0 0.0 0.0
vn -1.0 0.0 0.0
vn -1.0 0.0 0.0
vn -1.0 0.0 0.0
vn -1.0 0.0 0.0
vn -1.0 0.0 0.0
vn -1.0 0.0 0.0
vn -1.0 0.0 0.0
vn -1.0 0.0 0.0
vn -1.0 0.0 0.0
vn -1.0 0.0 0.0
vn -1.0 0.0 0.0
vn 0.0 0.0 -1.0
vn 0.0 0.0 -1.0
vn 0.0 0.0 -1.0
vn 0.0 0.0 -1.0
vn 0.0 0.0 -1.0
vn 0.0 0.0 -1.0
vn 0.0 0.0 -1.0
vn 0.0 0.0 -1.0
vn 0.0 0.0 -1.0
vn 0.0 0.0 -1.0
vn 0.0 0.0 -1.0
vn 0.0 0.0 -1.0
vn 0.0 0.0 1.0
vn 0.0 0.0 1.0
vn 0.0 0.0 1.0
vn 0.0 0.0 1.0
vn 0.0 0.0 1.0
vn 0.0 0.0 1.0
vn 0.0 0.0 1.0
vn 0.0 0.0 1.0
vn 0.0 0.0 1.0
vn 0.0 0.0 1.0
vn 0.0 0.0 1.0
vn 0.0 0.0 1.0

# tree_4, 28 grouped triangles

usemtl tree_4-tex.tex
o tree_4
g tree_4

f 1/1/1 2/2/2 3/3/3
f 1/4/4 3/5/5 4/6/6
f 5/7/7 6/8/8 7/9/9
f 5/10/10 7/11/11 8/12/12
f 9/13/13 10/14/14 11/15/15
f 9/16/16 11/17/17 12/18/18
f 13/19/19 14/20/20 15/21/21
f 13/22/22 15/23/23 16/24/24
f 17/25/25 18/26/26 19/27/27
f 17/28/28 19/29/29 20/30/30
f 21/31/31 22/32/32 23/33/33
f 21/34/34 23/35/35 24/36/36
f 25/37/37 26/38/38 27/39/39
f 25/40/40 27/41/41 28/42/42
f 29/43/43 30/44/44 31/45/45
f 29/46/46 31/47/47 32/48/48
f 33/49/49 34/50/50 35/51/51
f 33/52/52 35/53/53 36/54/54
f 37/55/55 38/56/56 39/57/57
f 37/58/58 39/59/59 40/60/60
f 41/61/61 42/62/62 43/63/63
f 41/64/64 43/65/65 44/66/66
f 45/67/67 46/68/68 47/69/69
f 45/70/70 47/71/71 48/72/72
f 49/73/73 50/74/74 51/75/75
f 49/76/76 51/77/77 52/78/78
f 53/79/79 54/80/80 55/81/81
f 53/82/82 55/83/83 56/84/84
